<?xml version="1.0" encoding="UTF-8"?>
<svg width="50px" height="50px" viewBox="0 0 50 50" version="1.1" xmlns="http://www.w3.org/2000/svg" xmlns:xlink="http://www.w3.org/1999/xlink">
    <!-- Generator: Sketch 53.2 (72643) - https://sketchapp.com -->
    <title>Software Testing &amp; QA services team</title>
    <desc>Created with Sketch.</desc>
    <defs>
        <linearGradient x1="75.4765625%" y1="91.8652344%" x2="23.3007812%" y2="9.76367188%" id="linearGradient-1">
            <stop stop-color="#A48CF6" offset="0%"></stop>
            <stop stop-color="#D1C5FF" offset="100%"></stop>
        </linearGradient>
        <filter x="-8.7%" y="-15.3%" width="117.5%" height="130.6%" filterUnits="objectBoundingBox" id="filter-2">
            <feGaussianBlur stdDeviation="1" in="SourceGraphic"></feGaussianBlur>
        </filter>
    </defs>
    <g id="Page-1" stroke="none" stroke-width="1" fill="none" fill-rule="evenodd">
        <g id="Icons-V2-Copy" transform="translate(-439.000000, -230.000000)">
            <g id="Software-Testing-&amp;-QA-services-team" transform="translate(439.000000, 230.000000)">
                <circle id="Oval" fill="url(#linearGradient-1)" cx="25" cy="25" r="25"></circle>
                <path d="M40.342377,33.66 L41.32,33.66 C41.8722847,33.66 42.32,34.1077153 42.32,34.66 L42.32,35.6 C42.32,36.1522847 41.8722847,36.6 41.32,36.6 L9,36.6 C8.44771525,36.6 8,36.1522847 8,35.6 L8,34.66 C8,34.1077153 8.44771525,33.66 9,33.66 L10.060024,33.66 L10.060024,18 C10.060024,17.4477153 10.5077393,17 11.060024,17 L39.342377,17 C39.8946617,17 40.342377,17.4477153 40.342377,18 L40.342377,33.66 Z" id="Combined-Shape" fill-opacity="0.504042832" fill="#8C6CF9" filter="url(#filter-2)"></path>
                <g id="Group" transform="translate(8.000000, 15.000000)">
                    <path d="M3,0 L31,0 C31.5522847,-1.01453063e-16 32,0.44771525 32,1 L32,19 C32,19.5522847 31.5522847,20 31,20 L3,20 C2.44771525,20 2,19.5522847 2,19 L2,1 C2,0.44771525 2.44771525,1.01453063e-16 3,0 Z" id="Rectangle" fill="#FFFFFF"></path>
                    <path d="M1,17 L33,17 C33.5522847,17 34,17.4477153 34,18 L34,19 C34,19.5522847 33.5522847,20 33,20 L1,20 C0.44771525,20 6.76353751e-17,19.5522847 0,19 L0,18 C-6.76353751e-17,17.4477153 0.44771525,17 1,17 Z" id="Rectangle" fill="#FFFFFF"></path>
                    <g id="qa" transform="translate(9.708333, 5.833333)" fill="#9884DB" fill-rule="nonzero" opacity="0.702404204">
                        <path d="M11.6458164,0 C11.3234514,0 11.0324407,0.194283005 10.9070231,0.493254443 L8.0633142,7.27338424 C7.8911456,7.68406638 8.08215892,8.15754545 8.49016723,8.33092305 C8.89833593,8.50413923 9.36857192,8.31187412 9.5409009,7.90119197 L9.94281475,6.94285291 L13.3488181,6.94285291 L13.750732,7.90119197 C13.8799987,8.20944573 14.1771038,8.39460784 14.4898461,8.39460784 C14.5938529,8.39460784 14.6996239,8.37410602 14.8014656,8.33084234 C15.2094739,8.15746473 15.4005674,7.68398567 15.2283187,7.27330352 L12.3846098,0.493173727 C12.2591921,0.194283005 11.9681815,0 11.6458164,0 Z M12.6568627,5.33088235 L10.6348039,5.33088235 L11.6457938,2.87990196 L12.6568627,5.33088235 Z" id="Shape"></path>
                        <path d="M3.57205022,8.39460784 C4.42602175,8.39460784 5.21072505,8.09271008 5.8259076,7.59050579 L6.60602926,8.16554175 C6.74464336,8.26775482 6.9059327,8.316957 7.0659019,8.316957 C7.30430261,8.316957 7.53959712,8.20743745 7.69187848,8.00052399 C7.9461208,7.65486504 7.8723486,7.16828419 7.52701702,6.91372313 L6.79007151,6.37055588 C7.01690163,5.90099759 7.14425575,5.37469744 7.14425575,4.81917135 L7.14425575,3.57551422 C7.14425575,1.60400677 5.54176812,0 3.57212787,0 C1.60248763,0 0,1.60400677 0,3.57551422 L0,4.81917135 C-7.76549538e-05,6.79060107 1.60240997,8.39460784 3.57205022,8.39460784 Z M1.55302142,3.5754365 C1.55302142,2.46111972 2.45871115,1.55449367 3.57205022,1.55449367 C4.68538929,1.55449367 5.59107902,2.46111972 5.59107902,3.5754365 L5.59107902,4.81909362 C5.59107902,5.02818347 5.55916283,5.22988911 5.50006741,5.41970228 L4.67972048,4.81505173 C4.3343889,4.56041294 3.84834655,4.63433281 3.59394892,4.98006949 C3.3397066,5.32572844 3.4134788,5.81230929 3.75881038,6.06687035 L4.49994926,6.61314674 C4.22194453,6.75779961 3.90651011,6.84011417 3.57212787,6.84011417 C2.4587888,6.84011417 1.55309908,5.93348813 1.55309908,4.81917135 L1.55309908,3.5754365 L1.55302142,3.5754365 Z" id="Shape"></path>
                    </g>
                </g>
            </g>
        </g>
    </g>
</svg>