<?xml version="1.0" encoding="UTF-8"?>
<svg width="50px" height="50px" viewBox="0 0 50 50" version="1.1" xmlns="http://www.w3.org/2000/svg" xmlns:xlink="http://www.w3.org/1999/xlink">
    <!-- Generator: Sketch 53.2 (72643) - https://sketchapp.com -->
    <title>UX Driven Engineering</title>
    <desc>Created with Sketch.</desc>
    <defs>
        <linearGradient x1="75.4765625%" y1="91.8652344%" x2="23.3007812%" y2="9.76367188%" id="linearGradient-1">
            <stop stop-color="#85C26A" offset="0%"></stop>
            <stop stop-color="#CCF5BA" offset="100%"></stop>
        </linearGradient>
        <filter x="-10.0%" y="-15.0%" width="120.0%" height="130.0%" filterUnits="objectBoundingBox" id="filter-2">
            <feGaussianBlur stdDeviation="1" in="SourceGraphic"></feGaussianBlur>
        </filter>
    </defs>
    <g id="Page-1" stroke="none" stroke-width="1" fill="none" fill-rule="evenodd">
        <g id="Icons-V2-Copy" transform="translate(-38.000000, -230.000000)">
            <g id="UX-Driven-Engineering" transform="translate(38.000000, 230.000000)">
                <circle id="Oval" fill="url(#linearGradient-1)" cx="25" cy="25" r="25"></circle>
                <path d="M11.375,17.5833333 L39.375,17.5833333 C39.9272847,17.5833333 40.375,18.0310486 40.375,18.5833333 L40.375,36.5833333 C40.375,37.1356181 39.9272847,37.5833333 39.375,37.5833333 L11.375,37.5833333 C10.8227153,37.5833333 10.375,37.1356181 10.375,36.5833333 L10.375,18.5833333 C10.375,18.0310486 10.8227153,17.5833333 11.375,17.5833333 Z" id="Rectangle" fill="#8DC774" filter="url(#filter-2)"></path>
                <g id="Rectangle-2" transform="translate(10.375000, 15.583333)">
                    <path d="M1,0 L29,0 C29.5522847,-1.01453063e-16 30,0.44771525 30,1 L30,19 C30,19.5522847 29.5522847,20 29,20 L1,20 C0.44771525,20 6.76353751e-17,19.5522847 0,19 L0,1 C-6.76353751e-17,0.44771525 0.44771525,1.01453063e-16 1,0 Z" id="Rectangle" fill="#FFFFFF"></path>
                    <g id="Group-2" transform="translate(6.000000, 1.000000)">
                        <path d="M8.97603909,2 C12.79156,2 19.4085254,12.3208321 17.6070808,15.5101446 C15.8056362,18.6994571 2.29243835,18.957932 0.344997347,15.5101446 C-1.60244366,12.0623572 5.16051822,2 8.97603909,2 Z" id="Polygon" fill="#85C26A" opacity="0.599999964" transform="translate(8.955831, 10.000000) scale(1, -1) translate(-8.955831, -10.000000) "></path>
                        <path d="M9.02215437,3.99680289e-14 C12.8376752,3.84681015e-14 19.4546407,10.3208321 17.6531961,13.5101446 C15.8517515,16.6994571 2.33855363,16.957932 0.391112624,13.5101446 C-1.55632838,10.0623572 5.20663349,4.21776133e-14 9.02215437,3.99680289e-14 Z" id="Polygon" fill="#85C26A" opacity="0.800000012"></path>
                        <path d="M5.816,12.278 C4.40551984,12.278 3.418,11.3877728 3.418,9.952 L3.418,6.328 L3.568,6.178 L4.832,6.178 L4.982,6.328 L4.982,9.848 C4.982,10.4322296 5.27803914,10.73 5.816,10.73 C6.35396086,10.73 6.65,10.4322296 6.65,9.848 L6.65,6.328 L6.8,6.178 L8.064,6.178 L8.214,6.328 L8.214,9.952 C8.214,11.3877728 7.22648016,12.278 5.816,12.278 Z M13.0758703,6.25000796 L13.204,6.178 L14.9581937,6.178 L13.0385745,9.17530018 L14.9767641,12.15 L13.164,12.15 L13.0358703,12.077992 L12.0444597,10.4492462 L11.0603771,12.0775844 L10.932,12.15 L9.16873849,12.15 L11.097425,9.1601148 L9.16831684,6.178 L10.964,6.178 L11.0921298,6.25000796 L12.084,7.87950903 L13.0758703,6.25000796 Z" id="UX" fill="#FFFFFF" fill-rule="nonzero"></path>
                    </g>
                </g>
            </g>
        </g>
    </g>
</svg>